<svg width="80" height="80" viewBox="0 0 80 80" fill="none" xmlns="http://www.w3.org/2000/svg">
<path d="M63.0205 0.205078L78.9178 16.7766V79.7943H19.5259V80H79.1149V16.9852L63.0205 0.205078Z" fill="#909090"/>
<path d="M62.8148 0H19.3201V79.7949H78.9149V16.7801L62.8148 0Z" fill="#231612"/>
<path d="M62.609 0.205078V16.9881H78.7034L62.609 0.205078Z" fill="#4C4442"/>
<path d="M62.8148 0V16.7801H78.9149L62.8148 0Z" fill="#F36617"/>
<path d="M1.15417 23.612H19.3229V4.0918H1.15417V23.612Z" fill="#909090"/>
<path d="M19.3229 23.612H58.5175V4.0918H19.3229V23.612Z" fill="#4C4442"/>
<path d="M58.3633 23.4601H1V3.93994H58.3633V23.4601Z" fill="#F36617"/>
<path d="M46.0574 53.1969C45.2716 50.1397 43.3488 43.9796 42.563 40.7853H42.523C41.9345 43.7968 40.3259 48.954 39.1487 53.1969H46.0574ZM38.1287 57.6712L35.7344 65.6112C35.6944 65.897 35.5773 65.977 35.343 65.977H31.343C31.0572 65.977 30.9887 65.8398 31.0572 65.5198C33.7416 56.6672 36.4759 47.8299 39.2602 39.0082C39.4653 38.1876 39.5708 37.3454 39.5744 36.4996C39.5687 36.4651 39.5705 36.4297 39.5795 36.396C39.5885 36.3622 39.6047 36.3307 39.6269 36.3036C39.649 36.2766 39.6767 36.2546 39.7081 36.2391C39.7395 36.2236 39.7738 36.215 39.8087 36.2139H45.2373C45.4345 36.2139 45.4716 36.2596 45.5516 36.4424C48.4545 45.7968 51.6345 56.1112 54.6174 65.557C54.6955 65.8312 54.6174 65.9684 54.3831 65.9684H49.9774C49.7802 65.9684 49.6917 65.877 49.6231 65.6827L47.1117 57.6512H38.123" fill="#F46C25"/>
<path d="M58.0289 44.4198C58.0289 44.1341 58.1061 44.0541 58.2975 44.0541H62.3861C62.6175 44.0541 62.6947 44.0998 62.6947 44.4198V65.8657C62.6947 66.0943 62.6175 66.2314 62.3861 66.2314H58.3861C58.1546 66.2314 58.0404 66.14 58.0404 65.82V44.4198H58.0289ZM57.7718 38.2112C57.7434 37.8499 57.7901 37.4866 57.9091 37.1442C58.0282 36.8018 58.2169 36.4879 58.4633 36.2221C58.7098 35.9563 59.0086 35.7445 59.341 35.6C59.6734 35.4555 60.0322 35.3815 60.3947 35.3826C60.7551 35.3772 61.1126 35.4489 61.443 35.5931C61.7734 35.7372 62.0691 35.9505 62.3103 36.2184C62.5514 36.4864 62.7324 36.8029 62.8411 37.1466C62.9498 37.4903 62.9837 37.8533 62.9404 38.2112C62.972 38.5697 62.9286 38.9308 62.8131 39.2716C62.6975 39.6125 62.5124 39.9255 62.2693 40.1909C62.0262 40.4563 61.7306 40.6682 61.4013 40.8132C61.0719 40.9582 60.716 41.0331 60.3561 41.0331C59.9962 41.0331 59.6403 40.9582 59.3109 40.8132C58.9815 40.6682 58.6859 40.4563 58.4429 40.1909C58.1998 39.9255 58.0146 39.6125 57.8991 39.2716C57.7836 38.9308 57.7402 38.5697 57.7718 38.2112Z" fill="#F46C25"/>
<path d="M26.4516 9.36835H26.4145L25.4859 15.2913H27.3487L26.4516 9.36835ZM21.4858 20.857L24.5144 6.97119H28.3859L31.3373 20.857H28.0859L27.6573 17.6198H25.1373L24.7259 20.857H21.4858Z" fill="#231612"/>
<path d="M32.7373 20.857V6.97119H35.8402V20.857H32.7373Z" fill="#231612"/>
</svg>
