<svg width="80" height="80" viewBox="0 0 80 80" fill="none" xmlns="http://www.w3.org/2000/svg">
<path fill-rule="evenodd" clip-rule="evenodd" d="M16.6167 8C12.05 8 8.67333 11.9967 8.82667 16.3267C8.97 20.4933 8.78333 25.8833 7.42667 30.28C6.06 34.6867 3.76 37.48 0 37.84V41.89C3.76 42.2467 6.06333 45.04 7.42333 49.45C8.78333 53.8467 8.97 59.2367 8.82333 63.4C8.67333 67.7333 12.05 71.73 16.6167 71.73H63.39C67.9567 71.73 71.3333 67.7333 71.18 63.4C71.0367 59.2367 71.2233 53.8467 72.58 49.45C73.9433 45.04 76.24 42.25 80 41.89V37.84C76.24 37.48 73.9433 34.6867 72.58 30.28C71.2233 25.88 71.0367 20.49 71.18 16.3267C71.3333 11.9933 67.9533 8 63.39 8H16.6167ZM54.2333 47.23C54.2333 53.1967 49.7833 56.8133 42.4 56.8133H29.83C29.4702 56.8133 29.1251 56.6704 28.8707 56.416C28.6163 56.1615 28.4733 55.8165 28.4733 55.4567V24.27C28.4742 23.9108 28.6175 23.5666 28.8719 23.3128C29.1262 23.0591 29.4708 22.9167 29.83 22.9167H42.33C48.4867 22.9167 52.53 26.25 52.53 31.3733C52.53 34.9667 49.81 38.1833 46.3467 38.75V38.9367C51.0633 39.4533 54.2367 42.72 54.2367 47.23H54.2333ZM41.0333 27.2133H33.8667V37.34H39.9033C44.57 37.34 47.1433 35.46 47.1433 32.1C47.1433 28.9533 44.93 27.2133 41.0333 27.2133ZM33.8667 41.3567V52.5133H41.3C46.1567 52.5133 48.7333 50.5633 48.7333 46.9C48.7333 43.2333 46.0867 41.3567 40.9867 41.3567H33.8667Z" fill="#7C14F8"/>
</svg>
