<svg width="80" height="80" viewBox="0 0 80 80" fill="none" xmlns="http://www.w3.org/2000/svg">
<path d="M40 0C17.9025 0 0 17.9025 0 40C0 62.0975 17.9025 80 40 80C62.0975 80 80 62.0975 80 40C80 17.9025 62.0975 0 40 0ZM23.2025 25.6C25.715 25.6 27.67 27.4325 27.89 29.5975C28.1275 31.55 27.3175 33.2575 25.1575 34.285C24.01 34.8575 23.555 34.8575 23.32 34.5175C23.2025 34.285 23.32 34.065 23.5525 33.8275C25.6125 32.125 25.6125 30.745 25.375 28.805C25.2575 27.5425 24.3475 26.745 23.435 26.745C19.425 26.745 13.7225 35.6525 14.515 42.175C14.8675 44.6875 16.3525 47.6575 19.5425 47.6575C20.5725 47.6575 21.72 47.3175 22.745 46.865C24.4125 45.9775 25.415 45.3025 26.405 44.195C26.1575 41.2375 28.7475 37.3725 32.575 37.3725C34.295 37.3725 35.6625 38.0625 35.7775 39.325C36 41.0325 34.515 41.265 34.06 41.265C33.6025 41.265 32.7975 41.1475 32.7975 40.6925C32.695 40.235 33.825 40.46 33.72 39.43C33.6025 38.74 32.9125 38.52 32.2375 38.52C29.8275 38.52 28.46 41.84 28.8 43.8825C28.9175 44.805 29.37 45.72 30.2975 45.72C30.975 45.72 32.005 44.69 32.34 43.2075C32.5725 42.1775 33.4875 41.4875 34.2925 41.4875C34.6325 41.4875 34.8525 41.605 34.97 42.06V42.5175C34.8675 42.975 34.5125 44.355 34.6325 44.69C34.6325 44.9275 34.75 45.2625 35.2025 45.2625C35.5025 45.2625 36.65 44.6625 37.795 43.725C38.1725 41.7575 38.6275 39.4025 38.6275 39.2075C38.745 38.4 39.085 37.605 40.685 37.605C41.035 37.605 41.2575 37.7225 41.375 38.1775V38.635L40.9175 40.6925C42.405 38.7525 44.5775 37.385 45.945 37.385C46.5175 37.385 46.975 37.7225 46.975 38.295C46.975 38.635 46.975 39.2075 46.7375 39.7825C46.285 41.0325 45.71 42.985 45.37 44.69C45.37 45.1475 45.4875 45.6025 46.06 45.6025C46.6325 45.6025 48.34 44.925 49.7075 43.09L49.735 43.0775C49.735 42.855 49.7075 42.635 49.7075 42.415C49.7075 41.035 49.825 39.9025 50.06 39.095C50.2925 38.1825 51.4275 37.3875 52.1175 37.3875C52.455 37.3875 52.8075 37.6075 52.8075 37.9475C52.8075 38.065 52.8075 38.2975 52.69 38.405C52.2325 39.9025 51.88 41.2675 51.88 42.635C51.88 43.4425 52 44.575 52.2325 45.265C52.2325 45.3825 52.335 45.4975 52.4525 45.4975C52.69 45.4975 54.29 44.015 55.4225 42.06C54.3925 41.3825 53.82 40.2375 53.82 38.87C53.82 36.4625 55.32 35.21 56.6875 35.21C57.835 35.21 58.745 36.0075 58.745 37.6075C58.745 38.6375 58.405 39.785 57.835 40.81H58.1725C58.9025 40.8375 59.62 40.5375 60.1125 40.0175C60.2213 39.8435 60.381 39.7074 60.57 39.6275C61.69 38.2075 63.33 37.155 65.27 37.155C66.87 37.155 68.3425 37.845 68.46 39.095C68.6925 40.8125 67.1975 41.1525 66.74 41.1525C66.2875 41.1525 65.48 41.035 65.48 40.58C65.48 40.125 66.5075 40.3475 66.4025 39.33C66.285 38.64 65.595 38.4075 64.905 38.4075C62.625 38.4075 61.1425 41.375 61.4775 43.785C61.595 44.695 62.05 45.725 62.965 45.725C63.655 45.725 64.6825 44.695 65.1375 43.2125C65.3575 42.3025 66.285 41.4925 67.0775 41.4925C67.4275 41.4925 67.65 41.61 67.7675 42.065C67.7675 42.3025 67.7675 42.755 67.31 44.2425C66.7375 45.27 66.7375 45.8425 66.8575 46.3C66.96 47.21 67.4175 47.9 67.885 48.24C67.9685 48.346 68.043 48.4589 68.1075 48.5775C68.1075 48.815 67.9875 49.0475 67.65 49.0475C67.5325 49.0475 67.4275 49.0475 67.31 48.93C65.5925 48.24 64.9025 47.0925 64.68 45.9475C63.99 46.755 63.1975 47.21 62.2725 47.21C60.785 47.21 59.315 45.8425 59.0825 44.1225C59.0114 43.3931 59.0958 42.6569 59.33 41.9625C58.6525 42.3925 57.9225 42.64 57.2475 42.64H56.6875C55.19 44.8125 53.5875 46.3 52.455 46.9775C52.0649 47.1854 51.6339 47.3049 51.1925 47.3275C50.9725 47.3275 50.6225 47.21 50.515 46.9775C50.1925 46.47 49.995 45.675 49.865 44.765C48.2625 46.5075 46.0475 47.445 45.0225 47.445C43.875 47.445 43.2 46.755 43.0825 45.6125V44.3625C43.42 41.85 44.345 40.3525 44.345 39.895C44.3383 39.8348 44.311 39.7788 44.2677 39.7364C44.2244 39.694 44.1678 39.6679 44.1075 39.6625C43.315 39.6625 40.685 42.41 40.2275 44.245L39.8775 45.7275C39.655 46.755 38.6275 47.445 37.9375 47.445C37.5975 47.445 37.365 47.3275 37.26 46.875V46.4175L37.4025 45.6375C35.955 46.665 34.51 47.3275 33.82 47.3275C32.7925 47.3275 32.22 46.755 32.1175 45.9475C31.4275 46.875 30.63 47.3275 29.605 47.3275C28.4175 47.3275 27.275 46.52 26.7275 45.35C25.905 46.2725 24.98 47.1975 23.8875 47.9C22.2875 48.93 20.465 49.7225 18.2875 49.7225C16.3475 49.7225 14.63 48.6925 13.7175 47.7825C12.3375 46.52 11.545 44.58 11.4275 42.755C10.75 37.1575 14.175 29.955 19.42 26.7525C20.6825 26.0625 21.9475 25.61 23.1975 25.61L23.2025 25.6ZM55.7675 36.5775C55.43 36.5775 55.1975 37.15 55.1975 37.7075C55.1975 38.635 55.65 39.66 56.225 40.235C56.4543 39.6094 56.5735 38.9488 56.5775 38.2825C56.5775 37.1525 56.12 36.58 55.7675 36.58V36.5775Z" fill="#23BFC8"/>
</svg>
