<svg width="80" height="80" viewBox="0 0 80 80" fill="none" xmlns="http://www.w3.org/2000/svg">
<path d="M11.4171 72.0029L5 0H75.5371L69.1114 71.9914L40.2257 80L11.4171 72.0029Z" fill="#1572B6"/>
<path d="M40.2686 73.8801L63.6114 67.4087L69.1028 5.88867H40.2686V73.8801Z" fill="#33A9DC"/>
<path d="M40.2686 31.9744H51.9543L52.76 22.9315H40.2686V14.1001H62.4114L62.2 16.4687L60.0314 40.8058H40.2686V31.9744Z" fill="white"/>
<path d="M40.3228 54.9088L40.2828 54.9202L30.4485 52.2631L29.8199 45.2202H20.9542L22.1914 59.0859L40.2799 64.1088L40.3228 64.0974V54.9088Z" fill="#EBEBEB"/>
<path d="M51.2028 40.4312L50.14 52.2569L40.2914 54.914V64.1026L58.3942 59.0854L58.5285 57.594L60.0628 40.4312H51.2028Z" fill="white"/>
<path d="M40.3 14.1001V22.9315H18.9686L18.7914 20.9458L18.3886 16.4687L18.1771 14.1001H40.3Z" fill="#EBEBEB"/>
<path d="M40.2686 31.9741V40.8055H30.5572L30.38 38.8198L29.98 34.3427L29.7686 31.9741H40.2686Z" fill="#EBEBEB"/>
</svg>
