<svg width="80" height="80" viewBox="0 0 80 80" fill="none" xmlns="http://www.w3.org/2000/svg">
<path d="M53 53.3332C60.3638 53.3332 66.3333 47.3636 66.3333 39.9998C66.3333 32.636 60.3638 26.6665 53 26.6665C45.6362 26.6665 39.6667 32.636 39.6667 39.9998C39.6667 47.3636 45.6362 53.3332 53 53.3332Z" fill="#19BCFE"/>
<path fill-rule="evenodd" clip-rule="evenodd" d="M26.3333 80.0002C29.8696 80.0002 33.2609 78.5954 35.7614 76.0949C38.2619 73.5944 39.6667 70.203 39.6667 66.6668V53.3335H26.3333C22.7971 53.3335 19.4057 54.7383 16.9052 57.2387C14.4048 59.7392 13 63.1306 13 66.6668C13 70.203 14.4048 73.5944 16.9052 76.0949C19.4057 78.5954 22.7971 80.0002 26.3333 80.0002Z" fill="#09CF83"/>
<path fill-rule="evenodd" clip-rule="evenodd" d="M26.3333 53.3332H39.6667V26.6665H26.3333C22.7971 26.6665 19.4057 28.0713 16.9052 30.5717C14.4048 33.0722 13 36.4636 13 39.9998C13 43.5361 14.4048 46.9274 16.9052 49.4279C19.4057 51.9284 22.7971 53.3332 26.3333 53.3332Z" fill="#A259FF"/>
<path fill-rule="evenodd" clip-rule="evenodd" d="M26.3333 26.6667H39.6667V0H26.3333C22.7971 0 19.4057 1.40476 16.9052 3.90524C14.4048 6.40573 13 9.79711 13 13.3333C13 16.8696 14.4048 20.2609 16.9052 22.7614C19.4057 25.2619 22.7971 26.6667 26.3333 26.6667Z" fill="#F24E1E"/>
<path fill-rule="evenodd" clip-rule="evenodd" d="M53 26.6667H39.6667V0H53C56.5362 0 59.9276 1.40476 62.4281 3.90524C64.9286 6.40573 66.3333 9.79711 66.3333 13.3333C66.3333 16.8696 64.9286 20.2609 62.4281 22.7614C59.9276 25.2619 56.5362 26.6667 53 26.6667Z" fill="#FF7262"/>
</svg>
