<svg width="80" height="80" viewBox="0 0 80 80" fill="none" xmlns="http://www.w3.org/2000/svg">
<g clip-path="url(#clip0)">
<path d="M78.49 36.4321L43.555 1.50964C43.0766 1.03002 42.5083 0.649498 41.8826 0.389863C41.257 0.130227 40.5862 -0.00341797 39.9088 -0.00341797C39.2314 -0.00341797 38.5606 0.130227 37.9349 0.389863C37.3092 0.649498 36.7409 1.03002 36.2625 1.50964L29.0225 8.76214L38.2275 17.9546C39.3088 17.5878 40.4713 17.5314 41.5831 17.7916C42.6948 18.0519 43.7114 18.6185 44.5175 19.4271C46.2375 21.1471 46.7175 23.6196 45.99 25.7546L54.845 34.6221C55.9299 34.2444 57.0995 34.1807 58.2189 34.4386C59.3384 34.6964 60.3622 35.2653 61.1725 36.0796C63.5825 38.4746 63.5825 42.3546 61.1725 44.7521C60.6043 45.3215 59.9294 45.7732 59.1864 46.0814C58.4434 46.3896 57.6469 46.5482 56.8425 46.5482C56.0382 46.5482 55.2417 46.3896 54.4987 46.0814C53.7557 45.7732 53.0808 45.3215 52.5125 44.7521C51.6592 43.8983 51.0758 42.8124 50.8349 41.6296C50.594 40.4468 50.7062 39.2192 51.1575 38.0996L42.8625 29.8446V51.6021C43.4475 51.8896 44.0075 52.2796 44.49 52.7621C46.8725 55.1721 46.8725 59.0371 44.49 61.4346C43.3351 62.585 41.7714 63.2308 40.1413 63.2308C38.5112 63.2308 36.9475 62.585 35.7925 61.4346C35.0778 60.7197 34.551 59.8392 34.2588 58.8714C33.9666 57.9037 33.9182 56.8787 34.1179 55.8877C34.3176 54.8967 34.7592 53.9705 35.4033 53.1914C36.0475 52.4123 36.8742 51.8045 37.81 51.4221V29.4571C37.0636 29.1401 36.3834 28.6856 35.805 28.1171C34.9447 27.2591 34.3601 26.1639 34.1258 24.9716C33.8915 23.7794 34.0184 22.5444 34.49 21.4246L25.4525 12.3371L1.49504 36.2821C0.537299 37.2541 0.000427246 38.5639 0.000427246 39.9284C0.000427246 41.2929 0.537299 42.6027 1.49504 43.5746L36.43 78.4971C36.9084 78.9768 37.4767 79.3573 38.1024 79.6169C38.7281 79.8765 39.3989 80.0102 40.0763 80.0102C40.7537 80.0102 41.4245 79.8765 42.0501 79.6169C42.6758 79.3573 43.2441 78.9768 43.7225 78.4971L78.4875 43.7321C78.9672 43.2537 79.3477 42.6854 79.6073 42.0597C79.867 41.4341 80.0006 40.7633 80.0006 40.0859C80.0006 39.4085 79.867 38.7377 79.6073 38.112C79.3477 37.4863 78.9672 36.918 78.4875 36.4396L78.49 36.4321Z" fill="#F05133"/>
</g>
<defs>
<clipPath id="clip0">
<rect width="80" height="80" fill="white"/>
</clipPath>
</defs>
</svg>
