<svg width="80" height="80" viewBox="0 0 80 80" fill="none" xmlns="http://www.w3.org/2000/svg">
<g clip-path="url(#clip0)">
<g clip-path="url(#clip1)">
<path d="M40.4152 80.0257L56.3827 30.8833H24.4474L40.4149 80.0257H40.4152Z" fill="#E24329"/>
<path d="M40.4153 80.0252L24.4475 30.8828H2.06982L40.4153 80.0252Z" fill="#FC6D26"/>
<path d="M2.06982 30.8828L-2.78238 45.8171C-2.99813 46.481 -2.99816 47.1961 -2.78247 47.8601C-2.56678 48.524 -2.14645 49.1026 -1.58171 49.513L40.4152 80.0255L2.06948 30.8832L2.06982 30.8828Z" fill="#FCA326"/>
<path d="M2.06982 30.883H24.4475L14.8308 1.28474C14.3359 -0.238312 12.1813 -0.237973 11.6868 1.28474L2.06982 30.883Z" fill="#E24329"/>
<path d="M40.4153 80.0252L56.3827 30.8828H78.7607L40.4149 80.0252H40.4153Z" fill="#FC6D26"/>
<path d="M78.7607 30.8828L83.6129 45.8171C83.8286 46.481 83.8286 47.1962 83.6128 47.8601C83.3971 48.5241 82.9767 49.1027 82.4119 49.513L40.4153 80.0255L78.7607 30.8832V30.8828Z" fill="#FCA326"/>
<path d="M78.7607 30.883H56.3827L65.9996 1.28474C66.4946 -0.238312 68.6491 -0.237973 69.1437 1.28474L78.7607 30.883Z" fill="#E24329"/>
</g>
</g>
<defs>
<clipPath id="clip0">
<rect width="80" height="80" fill="white"/>
</clipPath>
<clipPath id="clip1">
<rect width="86.7797" height="80" fill="white" transform="translate(-3)"/>
</clipPath>
</defs>
</svg>
