<svg width="80" height="80" viewBox="0 0 80 80" fill="none" xmlns="http://www.w3.org/2000/svg">
<path d="M11.42 72.0029L5 0H75.5429L69.1143 71.9914L40.2286 80L11.42 72.0029Z" fill="#E44F26"/>
<path d="M40.2714 73.8801L63.6142 67.4087L69.1056 5.88867H40.2714V73.8801Z" fill="#F1662A"/>
<path d="M40.2713 32.5911H28.5856L27.7799 23.5482H40.2713V14.7168H18.1285L18.3399 17.0882L20.5085 41.4225H40.2713V32.5911Z" fill="#EBEBEB"/>
<path d="M40.2713 55.5256L40.2313 55.537L30.3971 52.8827L29.7685 45.8398H20.9028L22.1399 59.7027L40.2313 64.7256L40.2713 64.7141V55.5256Z" fill="#EBEBEB"/>
<path d="M40.2399 32.5923V41.4237H51.1142L50.0914 52.878L40.2399 55.5351V64.7237L58.3456 59.7037L58.4771 58.2123L60.5514 34.9637L60.7685 32.5923H40.2399Z" fill="white"/>
<path d="M40.2399 14.7168V23.5482H61.5714L61.7485 21.5654L62.1514 17.0882L62.3628 14.7168H40.2399Z" fill="white"/>
</svg>
