<svg width="80" height="80" viewBox="0 0 80 80" fill="none" xmlns="http://www.w3.org/2000/svg">
<g clip-path="url(#clip0)">
<path fill-rule="evenodd" clip-rule="evenodd" d="M75.812 48.5356L80 48.5587C80 48.5587 72.2138 59.1096 71.5779 59.9694C71.3715 60.2479 71.0579 60.5482 70.8987 60.9204C70.4965 61.8562 70.0836 63.9089 70.0836 63.9089L66.2517 63.9281C66.2517 63.9281 66.848 61.7883 66.8234 60.6487C66.8019 59.6531 66.2935 58.6587 66.0085 57.6602C65.7203 56.6494 65.329 54.6715 65.329 54.6715H69.2687L69.812 56.8451L75.812 48.5356" fill="#1A1918"/>
<path fill-rule="evenodd" clip-rule="evenodd" d="M67.8817 50.7612C68.6546 51.2272 69.1289 53.7974 69.1289 53.7974C69.1289 53.7974 65.0848 53.857 62.8841 53.857H60.9823L58.6729 63.9093H55.1411C55.1411 63.9093 57.339 52.985 57.8579 51.0045C58.0261 50.3632 59.0099 50.4732 60.6712 50.4732H63.3242C65.0373 50.4732 67.0396 50.2545 67.8817 50.7612" fill="#1A1918"/>
<path fill-rule="evenodd" clip-rule="evenodd" d="M51.4394 55.6563C51.4394 55.6563 51.5495 55.0111 51.0659 54.2638C50.6528 53.6268 50.2714 53.4786 49.1845 53.4446C46.1159 53.3482 46.1755 55.6223 46.1755 55.6223L51.4394 55.6563ZM54.7675 53.052C55.2172 54.6742 54.36 58.4858 54.36 58.4858C54.36 58.4858 49.8839 58.4111 47.4321 58.4858C46.6698 58.5091 45.7573 58.4029 45.5303 58.7576C45.211 59.2546 45.647 60.0196 46.0165 60.3428C46.4418 60.7149 47.2702 60.7573 47.568 60.795C49.5579 61.0478 53.7228 60.8603 53.7228 60.8603L53.0014 64.0551C53.0014 64.0551 47.1157 64.3503 44.1719 63.6476C43.5906 63.5092 43.0457 63.2294 42.6775 62.8327C42.577 62.7242 42.4898 62.5762 42.3948 62.4483C42.3189 62.3463 42.0976 62.0109 41.9983 61.7458C41.3259 59.9541 42.0771 56.5216 42.8134 54.6822C42.8988 54.4691 43.0062 54.1987 43.1192 53.969C43.2604 53.6825 43.3798 53.3592 43.4926 53.1879C43.5685 53.0698 43.6625 52.9937 43.7413 52.8823C43.8322 52.7505 43.938 52.6228 44.036 52.5088C44.3077 52.1937 44.6161 51.9708 44.987 51.6939C46.2134 50.7754 48.4331 50.0624 51.0998 50.3353C52.1038 50.4385 53.62 50.7971 54.36 51.8296C54.5583 52.1053 54.6562 52.6527 54.7675 53.0522V53.052Z" fill="#1A1918"/>
<path fill-rule="evenodd" clip-rule="evenodd" d="M38.5683 50.4601L41.993 50.4399C41.993 50.4399 40.0843 59.4937 39.1116 63.9087H35.172C32.4187 63.9087 29.9668 64.2496 28.9235 62.2785C27.9115 60.3645 28.8773 57.2171 29.3309 55.0788C29.6516 53.5655 30.3269 50.4724 30.3269 50.4724L33.8751 50.4399C33.8751 50.4399 32.8725 55.2555 32.4553 57.66C32.3059 58.5212 31.9978 59.3322 32.3196 59.969C32.6252 60.5751 33.0532 60.6185 34.3571 60.6484C34.7702 60.6582 36.1232 60.6484 36.1232 60.6484L38.5683 50.4601" fill="#1A1918"/>
<path fill-rule="evenodd" clip-rule="evenodd" d="M22.5389 56.9807C22.8975 55.7067 23.4205 54.3252 23.354 53.1771C23.2821 51.9493 22.2525 50.8313 21.5881 50.5963C19.5872 49.8899 17.714 50.8775 16.9695 51.683C16.0063 52.7263 15.6802 53.9449 15.3392 55.6226C15.0855 56.8681 14.8774 58.1829 15.3392 59.1543C16.1569 60.8715 18.7068 60.4965 21.4523 60.5129C21.8597 59.4207 22.1966 58.1941 22.5389 56.9807ZM27.2935 51.9548C27.6845 54.7991 26.1838 57.9387 25.1499 60.6689C26.2041 60.7641 27.1279 60.6543 27.1944 60.7329C27.2636 60.8347 26.4878 63.9917 26.2174 63.9999C25.3808 64.0216 22.6083 64.0447 21.4523 64.0447C17.6798 64.0447 14.1507 64.2905 12.351 62.4147C11.6201 61.6526 11.1147 60.3455 10.9923 59.426C10.7886 57.891 11.0439 56.201 11.4 54.8075C11.722 53.5494 12.1347 52.3622 12.7584 51.2753C14.3437 48.5084 17.1012 46.4545 21.7238 46.9286C22.6205 47.0209 23.9081 47.4135 24.7125 47.8794C24.768 47.9121 24.9626 48.0669 25.0071 48.0941C26.094 48.7856 27.0843 50.436 27.2935 51.9548V51.9548Z" fill="#1A1918"/>
<path fill-rule="evenodd" clip-rule="evenodd" d="M10.6024 50.4762C10.3743 51.5154 10.1461 52.6933 9.90562 53.7202H6.10205C6.39669 52.5819 6.62232 51.4503 6.91716 50.46C8.13425 50.46 9.2659 50.4762 10.6026 50.4762" fill="#1A1918"/>
<path fill-rule="evenodd" clip-rule="evenodd" d="M5.96618 54.6719H9.63407C9.15447 57.3262 8.20484 61.6078 7.46051 64.5883C6.9946 66.4535 6.68353 67.8145 5.42284 68.7993C5.31003 68.8877 5.24492 68.8456 5.15107 68.9352C4.9188 69.1567 3.84424 69.4136 3.24948 69.4785C2.28226 69.5833 1.18874 69.4922 0 69.4678C0.311066 68.3308 0.662997 66.9656 0.940239 65.9465C3.83779 66.2973 3.91111 63.5585 4.47204 60.9206C4.7966 59.3963 5.78024 55.2831 5.96618 54.6719" fill="#1A1918"/>
<path fill-rule="evenodd" clip-rule="evenodd" d="M56.7678 35.4232L56.6131 35.8243C53.9764 40.9591 49.3039 44.1093 42.6394 44.2482C39.5239 44.3125 36.5554 43.513 34.6162 42.6439C30.4313 40.7636 26.9113 37.2766 24.989 33.551C22.2314 28.2102 21.7341 20.7809 27.4678 15.2319C27.5564 15.2319 26.7723 16.4352 26.8608 16.4352L26.703 16.9487C22.5713 29.8842 35.3009 40.9699 47.6753 39.702C50.6492 39.3971 54.4414 37.7685 56.7678 35.4232Z" fill="#21609B"/>
<path fill-rule="evenodd" clip-rule="evenodd" d="M49.2796 30.0739C52.3928 30.095 55.6446 28.64 57.5703 26.5973C55.8856 30.8737 51.0075 33.6224 44.4662 32.7483C38.9888 32.0154 33.7712 26.5037 33.2339 20.9809C32.8409 16.9616 34.2416 14.5628 36.55 11.6528C35.7478 13.1748 35.4479 14.3484 35.3733 15.0971C34.4964 23.7916 42.3187 30.0281 49.2796 30.0739" fill="#21609B"/>
<path fill-rule="evenodd" clip-rule="evenodd" d="M57.2575 19.2746C56.7736 20.3847 53.9872 22.481 52.7566 22.7431C47.8839 23.7812 44.7634 21.4706 43.1287 18.8412C42.8858 18.4486 42.4366 17.3762 42.3561 17.1033C41.7222 14.9477 42.0136 11.6875 43.9047 10C43.335 11.6047 43.2518 13.4685 43.5517 14.6802C43.7334 15.4127 44.2869 16.6918 44.8408 17.4963C45.8485 18.9617 46.4878 19.3177 47.7823 20.096C48.3655 20.4463 48.991 20.7273 49.2612 20.8043C50.4887 21.1657 53.0803 22.1176 57.2579 19.2746" fill="#21609B"/>
</g>
<defs>
<clipPath id="clip0">
<rect width="80" height="80" fill="white"/>
</clipPath>
</defs>
</svg>
