<svg width="80" height="80" viewBox="0 0 80 80" fill="none" xmlns="http://www.w3.org/2000/svg">
<rect width="80" height="80" fill="black"/>
<path d="M0 0V80H80V0H0ZM43.536 62.3947C43.536 70.1813 38.9707 73.7227 32.3093 73.7227C26.2987 73.7227 22.808 70.608 21.0347 66.8533L27.1573 63.1467C28.3387 65.216 29.4133 66.9867 31.9893 66.9867C34.4587 66.9867 36.016 66.0453 36.016 62.2667V36.72H43.536V62.3947ZM61.312 73.7227C54.3307 73.7227 49.8187 70.3947 47.6187 66.0427L53.7387 62.504C55.3493 65.112 57.4453 67.064 61.152 67.064C64.264 67.064 66.2267 65.5067 66.2267 63.3413C66.2267 60.7653 64.184 59.848 60.7493 58.368L58.8827 57.5413C53.4587 55.2347 49.8613 52.3333 49.8613 46.208C49.8613 40.5733 54.1387 36.2747 60.8693 36.2747C65.648 36.2747 69.0827 37.9413 71.5573 42.2853L65.7173 46.032C64.4373 43.7387 63.0347 42.8053 60.8853 42.8053C58.688 42.8053 57.28 44.1973 57.28 46.032C57.28 48.304 58.6667 49.2 61.8933 50.592L63.768 51.4187C70.16 54.1387 73.76 56.9387 73.76 63.232C73.7787 70.016 68.464 73.712 61.32 73.712L61.312 73.7227Z" fill="#F7DF1E"/>
</svg>
