<svg width="80" height="80" viewBox="0 0 80 80" fill="none" xmlns="http://www.w3.org/2000/svg">
<g clip-path="url(#clip0)">
<path d="M78.5321 18.0667C78.5609 18.1731 78.5758 18.2828 78.5758 18.3931V35.5349C78.5758 35.9828 78.3364 36.3964 77.9476 36.6191L63.5606 44.9031V61.3212C63.5607 61.5409 63.503 61.7568 63.3933 61.9471C63.2836 62.1375 63.1258 62.2957 62.9358 62.4058L32.903 79.6946C32.8342 79.7334 32.7594 79.7582 32.6842 79.7852C32.6561 79.7943 32.6297 79.8115 32.6 79.8194C32.39 79.8747 32.1693 79.8747 31.9594 79.8194C31.9249 79.8103 31.8936 79.7912 31.8609 79.7788C31.7921 79.7537 31.7203 79.7318 31.6549 79.6946L1.62818 62.4055C1.43738 62.296 1.27883 62.1381 1.16854 61.9477C1.05825 61.7573 1.00011 61.5413 1 61.3212V9.89579C1 9.78306 1.01576 9.67367 1.04364 9.56761C1.05303 9.53155 1.07485 9.49882 1.08758 9.46276C1.11091 9.3973 1.13303 9.33003 1.16727 9.26912C1.19061 9.22852 1.22485 9.19579 1.25303 9.15821C1.28909 9.10821 1.32182 9.0567 1.36394 9.01276C1.4 8.977 1.44697 8.95033 1.48758 8.91912C1.53303 8.88155 1.57333 8.84094 1.62485 8.81124H1.62636L16.6403 0.167001C16.8304 0.0575863 17.0459 0 17.2653 0C17.4847 0 17.7002 0.0575863 17.8903 0.167001L32.9042 8.81124H32.9073C32.9573 8.84276 32.9997 8.88155 33.0448 8.91761C33.0855 8.94882 33.1309 8.977 33.1667 9.01155C33.2106 9.0567 33.2418 9.10852 33.2791 9.15821C33.3058 9.19579 33.3418 9.22852 33.3636 9.26912C33.3994 9.33155 33.4197 9.3973 33.4449 9.46306C33.4573 9.49882 33.4791 9.53155 33.4885 9.56912C33.5173 9.67549 33.5321 9.78549 33.5324 9.89579V42.0152L46.0433 34.8112V18.3915C46.0433 18.2825 46.0591 18.1712 46.0873 18.0667C46.0982 18.0291 46.1185 17.9964 46.1309 17.9606C46.1561 17.8949 46.1779 17.8273 46.2121 17.7667C46.2355 17.7261 46.2697 17.6934 46.2967 17.6558C46.3339 17.6058 46.3652 17.5543 46.4088 17.5103C46.4452 17.4746 46.4903 17.4479 46.5309 17.4167C46.5779 17.3791 46.6185 17.3385 46.6685 17.3088H46.67L61.6855 8.66458C61.8755 8.55501 62.0911 8.49734 62.3105 8.49734C62.5298 8.49734 62.7454 8.55501 62.9355 8.66458L77.9494 17.3088C78.0024 17.34 78.043 17.3791 78.09 17.4149C78.1288 17.4464 78.1742 17.4746 78.2103 17.5088C78.2539 17.5543 78.2852 17.6058 78.3224 17.6558C78.3509 17.6934 78.3852 17.7261 78.4073 17.7667C78.443 17.8273 78.4633 17.8949 78.4882 17.9606C78.5024 17.9964 78.5227 18.0291 78.5321 18.0667ZM76.073 34.8115V20.557L70.8188 23.5815L63.5603 27.7609V42.0155L76.0745 34.8115H76.073ZM61.0591 60.5979V46.3334L53.9191 50.4112L33.5309 62.0476V76.4458L61.0591 60.5973V60.5979ZM3.50273 12.0594V60.5979L31.0279 76.4446V62.0491L16.6485 53.9109L16.6439 53.9079L16.6379 53.9049C16.5894 53.8767 16.5485 53.8361 16.5033 53.8019C16.4639 53.7703 16.4188 53.7455 16.3845 53.7109L16.3815 53.7064C16.3409 53.6673 16.3127 53.6188 16.2785 53.5752C16.247 53.5328 16.2097 53.497 16.1845 53.4534L16.183 53.4485C16.1548 53.4019 16.1376 53.3455 16.1173 53.2925C16.097 53.2455 16.0706 53.2015 16.0579 53.1519V53.1503C16.0424 53.0909 16.0394 53.0282 16.033 52.9673C16.027 52.9206 16.0142 52.8737 16.0142 52.8267V19.2637L8.75697 15.0825L3.50273 12.0612V12.0594ZM17.267 2.69488L4.75727 9.89579L17.2639 17.0964L29.7718 9.89397L17.2639 2.69488H17.267ZM23.7724 47.6337L31.0294 43.4561V12.0594L25.7758 15.0843L18.5167 19.2634V50.6597L23.7724 47.6337ZM62.3103 11.1925L49.8024 18.3931L62.3103 25.594L74.8167 18.3915L62.3106 11.1925H62.3103ZM61.0588 27.7609L53.8003 23.5815L48.5464 20.557V34.8115L55.8033 38.9894L61.0591 42.0155V27.7609H61.0588ZM32.2779 59.884L50.6242 49.41L59.7952 44.1761L47.2964 36.98L32.9058 45.2649L19.79 52.8158L32.2779 59.884Z" fill="#FF2D20"/>
</g>
<defs>
<clipPath id="clip0">
<rect width="77.5758" height="80" fill="white" transform="translate(1)"/>
</clipPath>
</defs>
</svg>
