<svg width="80" height="80" viewBox="0 0 80 80" fill="none" xmlns="http://www.w3.org/2000/svg">
<path d="M40 60.8726C62.0914 60.8726 80 51.2752 80 39.4363C80 27.5974 62.0914 18 40 18C17.9086 18 0 27.5974 0 39.4363C0 51.2752 17.9086 60.8726 40 60.8726Z" fill="url(#paint0_radial)"/>
<path d="M40 59.2797C61.2284 59.2797 78.4375 50.3954 78.4375 39.436C78.4375 28.4766 61.2284 19.5923 40 19.5923C18.7716 19.5923 1.5625 28.4766 1.5625 39.436C1.5625 50.3954 18.7716 59.2797 40 59.2797Z" fill="#6181B6"/>
<path d="M47.7812 45.8704L49.6875 35.8689C50.125 33.6074 49.75 31.9193 48.625 30.8682C47.5312 29.8489 45.6562 29.3393 42.9062 29.3393H39.5937L40.5312 24.3704C40.5625 24.1793 40.5312 23.9882 40.4062 23.8289C40.2812 23.6697 40.125 23.606 39.9375 23.606H35.375C35.0625 23.606 34.8125 23.8289 34.75 24.1156L32.7187 34.7223C32.5312 33.5119 32.0937 32.4926 31.3437 31.6645C30 30.1037 27.9062 29.3074 25.0625 29.3074H16.2812C15.9687 29.3074 15.7187 29.5304 15.6562 29.8171L11.5625 51.3489C11.5312 51.54 11.5625 51.7311 11.6875 51.8904C11.8125 52.0497 11.9687 52.1134 12.1562 52.1134H16.75C17.0625 52.1134 17.3125 51.8904 17.375 51.6037L18.375 46.4119H21.7812C23.5625 46.4119 25.0937 46.2208 26.25 45.8386C27.4687 45.4245 28.5625 44.7556 29.5312 43.8319C30.3125 43.0993 30.9687 42.2711 31.4687 41.3793L30.6562 45.6793C30.625 45.8704 30.6562 46.0615 30.7812 46.2208C30.9062 46.38 31.0625 46.4437 31.25 46.4437H35.8125C36.125 46.4437 36.375 46.2208 36.4375 45.9341L38.6875 34.1489H41.8125C43.1562 34.1489 43.5312 34.4037 43.6562 34.5311C43.75 34.6267 43.9375 35.0089 43.7187 36.1874L41.9062 45.7111C41.875 45.9023 41.9062 46.0934 42.0312 46.2526C42.1562 46.4119 42.3125 46.4756 42.5 46.4756H47.1875C47.4687 46.38 47.7187 46.1571 47.7812 45.8704ZM26.6562 37.5889C26.375 39.086 25.8437 40.1689 25.0625 40.7741C24.2812 41.3793 23 41.6978 21.3125 41.6978H19.2812L20.75 33.9897H23.375C25.3125 33.9897 26.0937 34.4037 26.4062 34.7541C26.8125 35.2637 26.9062 36.2511 26.6562 37.5889Z" fill="white"/>
<path d="M67.2812 31.6642C65.9375 30.1034 63.8437 29.3071 61 29.3071H52.1562C51.8437 29.3071 51.5937 29.5301 51.5312 29.8168L47.4375 51.3168C47.4062 51.5079 47.4375 51.699 47.5625 51.8582C47.6875 52.0175 47.8437 52.0812 48.0312 52.0812H52.625C52.9375 52.0812 53.1875 51.8582 53.25 51.5716L54.25 46.3797H57.6562C59.4375 46.3797 60.9687 46.1886 62.125 45.8064C63.3437 45.3923 64.4375 44.7234 65.4062 43.7997C66.2187 43.0353 66.9062 42.1753 67.4062 41.2516C67.9062 40.3279 68.2812 39.3086 68.5 38.1938C69.0312 35.4227 68.625 33.2568 67.2812 31.6642ZM62.5 37.5886C62.2187 39.0856 61.6875 40.1686 60.9062 40.7738C60.125 41.379 58.8437 41.6975 57.1562 41.6975H55.125L56.5937 33.9894H59.2187C61.1562 33.9894 61.9375 34.4034 62.25 34.7538C62.6875 35.2634 62.7812 36.2508 62.5 37.5886Z" fill="white"/>
<path d="M23.375 33.3525C25.125 33.3525 26.2812 33.671 26.875 34.3399C27.4688 35.0088 27.5938 36.1236 27.2813 37.7162C26.9688 39.3725 26.3438 40.5829 25.4375 41.2836C24.5312 41.9843 23.1562 42.3347 21.3125 42.3347H18.5312L20.25 33.3525H23.375ZM12.1875 51.4443H16.7812L17.875 45.7429H21.8125C23.5625 45.7429 24.9688 45.5517 26.0938 45.1695C27.2188 44.7873 28.2188 44.1821 29.1562 43.2903C29.9375 42.5577 30.5625 41.7614 31.0312 40.9014C31.5 40.0414 31.8438 39.0858 32.0312 38.0347C32.5312 35.4866 32.1562 33.5117 30.9375 32.0784C29.7188 30.6451 27.7812 29.9443 25.125 29.9443H16.2812L12.1875 51.4443Z" fill="#000004"/>
<path d="M35.4062 24.2432H39.9687L38.875 29.9446H42.9375C45.5 29.9446 47.25 30.3906 48.2187 31.3143C49.1875 32.238 49.4687 33.7032 49.0937 35.7417L47.1875 45.7432H42.5625L44.375 36.2195C44.5937 35.1365 44.5 34.4039 44.1562 34.0217C43.8125 33.6395 43.0312 33.4165 41.875 33.4165H38.2187L35.875 45.7432H31.3125L35.4062 24.2432Z" fill="#000004"/>
<path d="M59.2187 33.3525C60.9687 33.3525 62.125 33.671 62.7187 34.3399C63.3125 35.0088 63.4375 36.1236 63.125 37.7162C62.8125 39.3725 62.1875 40.5829 61.2812 41.2836C60.375 41.9843 59 42.3347 57.1562 42.3347H54.375L56.0937 33.3525H59.2187ZM48.0312 51.4443H52.625L53.7187 45.7429H57.6562C59.4062 45.7429 60.8125 45.5517 61.9375 45.1695C63.0625 44.7873 64.0625 44.1821 65 43.2903C65.7812 42.5577 66.4062 41.7614 66.875 40.9014C67.3437 40.0414 67.6875 39.0858 67.875 38.0347C68.375 35.4866 68 33.5117 66.7812 32.0784C65.5625 30.6451 63.625 29.9443 60.9687 29.9443H52.125L48.0312 51.4443Z" fill="#000004"/>
<defs>
<radialGradient id="paint0_radial" cx="0" cy="0" r="1" gradientUnits="userSpaceOnUse" gradientTransform="translate(24.0161 25.5385) scale(52.5298 53.5415)">
<stop stop-color="white"/>
<stop offset="0.5" stop-color="#4C6B97"/>
<stop offset="1" stop-color="#231F20"/>
</radialGradient>
</defs>
</svg>
