<svg width="80" height="80" viewBox="0 0 80 80" fill="none" xmlns="http://www.w3.org/2000/svg">
<path d="M63.4171 0H19.8114V80H79.5543V16.8229L63.6143 0.205714L63.4171 0Z" fill="#070444"/>
<path d="M1 4.26611H59.02V26.6775H1V4.26611Z" fill="#5BC3F6"/>
<path d="M63.4172 0V16.8229H79.5543L63.4172 0Z" fill="#5BC3F6"/>
<path d="M14.8485 8.53443C16.0182 8.31629 17.2075 8.22054 18.3971 8.24871C19.0089 8.19422 19.6254 8.26547 20.2086 8.45808C20.7918 8.65069 21.3295 8.96059 21.7885 9.36871C22.6274 10.3166 23.0667 11.5525 23.0142 12.8173C23.0771 14.0667 22.7167 15.3008 21.9914 16.3201C21.5435 16.8199 20.9889 17.2124 20.3687 17.4686C19.7484 17.7248 19.0785 17.8381 18.4085 17.8001C18.1736 17.7997 17.9389 17.7854 17.7057 17.7573V22.6144H14.8485V8.53443ZM17.7057 14.8373C17.9215 14.867 18.1392 14.8813 18.3571 14.8801C18.6151 14.8906 18.8723 14.8446 19.1107 14.7453C19.3491 14.6461 19.563 14.496 19.7374 14.3056C19.9118 14.1151 20.0425 13.8889 20.1204 13.6427C20.1983 13.3965 20.2216 13.1362 20.1885 12.8801C20.219 12.6531 20.1991 12.422 20.1303 12.2035C20.0614 11.985 19.9452 11.7843 19.7901 11.6157C19.6349 11.4472 19.4444 11.3149 19.2323 11.2282C19.0202 11.1416 18.7916 11.1027 18.5628 11.1144C18.2746 11.1058 17.9865 11.1346 17.7057 11.2001V14.8373Z" fill="#070444"/>
<path d="M26.2285 18.7936C27.0547 19.3466 28.0204 19.6546 29.0142 19.6822C29.9999 19.6822 30.4799 19.2365 30.4799 18.5194C30.4799 17.8022 29.9914 17.4279 28.7914 16.8565C27.9099 16.5385 27.148 15.9562 26.6096 15.1893C26.0711 14.4223 25.7824 13.5079 25.7828 12.5708C25.7391 11.9886 25.8186 11.4038 26.0161 10.8544C26.2136 10.305 26.5247 9.80339 26.929 9.3823C27.3334 8.96121 27.822 8.63008 28.3629 8.4105C28.9039 8.19092 29.485 8.08783 30.0685 8.10793C31.0898 8.07913 32.099 8.33537 32.9828 8.84793L32.3914 11.8965C31.6884 11.4601 30.8788 11.2258 30.0514 11.2194C29.1771 11.2194 28.6971 11.6422 28.6971 12.2765C28.6971 12.9965 29.2685 13.2908 30.6228 13.9679C31.478 14.3015 32.2078 14.8938 32.7103 15.6621C33.2127 16.4304 33.4628 17.3364 33.4257 18.2536C33.4709 18.8656 33.3836 19.48 33.1699 20.0551C32.9561 20.6303 32.6209 21.1526 32.187 21.5864C31.7532 22.0203 31.2309 22.3555 30.6557 22.5693C30.0806 22.783 29.4661 22.8703 28.8542 22.8251C27.7449 22.8227 26.6577 22.5153 25.7114 21.9365L26.2285 18.7936Z" fill="#070444"/>
<path d="M39.1914 19.943H38.9057V10.7287H38.9457C39.5634 10.659 40.188 10.7712 40.7428 11.0516C41.1512 11.3781 41.4836 11.7895 41.7171 12.2573C41.9688 12.7481 42.1139 13.2865 42.1428 13.8373C42.1714 14.4973 42.1428 15.0287 42.1428 15.4887C42.1547 16.004 42.1212 16.5193 42.0428 17.0287C41.9509 17.5554 41.7794 18.065 41.5342 18.5402C41.2581 18.9799 40.8847 19.3504 40.4428 19.623C40.0724 19.8622 39.6339 19.9735 39.1942 19.9402L39.1914 19.943ZM39.7428 8.10873C39.4085 8.10873 39.0857 8.13444 38.8571 8.14301L38.1514 8.16301H35.8085V22.603H38.5628C39.6178 22.6323 40.6682 22.4537 41.6542 22.0773C42.4503 21.7633 43.1554 21.2555 43.7057 20.6002C44.2384 19.9401 44.6206 19.1718 44.8257 18.3487C45.0623 17.415 45.1775 16.4547 45.1685 15.4916C45.2265 14.3555 45.1382 13.2166 44.9057 12.103C44.6822 11.2825 44.2659 10.5272 43.6914 9.90016C43.2445 9.39122 42.6967 8.98064 42.0828 8.69444C41.5568 8.45008 41.0033 8.26974 40.4342 8.1573C40.2077 8.11976 39.9782 8.10255 39.7485 8.10587" fill="#070444"/>
<path d="M40.2772 50.4319C39.419 50.4559 38.5602 50.4264 37.7058 50.3433V40.3719C38.0229 40.3262 39.1343 40.2833 40.6772 40.2833C44.3915 40.2833 46.0286 41.8433 46.0286 45.4005C46.0286 49.8462 43.4115 50.4319 40.28 50.4319H40.2772ZM40.6772 36.0576C37.6657 36.0576 34.6915 36.1033 33.1857 36.1462C32.9886 36.1462 32.9486 36.2348 32.9486 36.4576V64.829C32.9486 65.0519 33.0286 65.1405 33.2343 65.1405H37.42C37.6172 65.1405 37.7058 65.0519 37.7058 64.7833V54.6576H40.1629C45.9886 54.6576 50.7857 52.7776 50.7857 45.709C50.7457 40.5519 48.4486 36.0576 40.6772 36.0576Z" fill="#5BC3F6"/>
<path d="M60.4914 43.4803C59.5802 43.3697 58.6559 43.4541 57.7798 43.7279C56.9038 44.0018 56.0959 44.4587 55.4099 45.0686C54.7239 45.6784 54.1754 46.4271 53.8008 47.265C53.4262 48.103 53.234 49.011 53.2371 49.9288C53.2371 53.1746 54.6656 54.9088 58.7456 56.786C61.6028 58.0746 62.3142 58.7431 62.3142 59.8974C62.3142 60.8746 61.6799 61.8974 59.8571 61.8974C57.5241 61.7603 55.2868 60.9229 53.4371 59.4946C53.4094 59.4727 53.3752 59.4607 53.3399 59.4603C53.2456 59.4603 53.1599 59.5517 53.1599 59.7174V63.8088C53.1509 63.8983 53.1687 63.9883 53.2109 64.0677C53.2531 64.147 53.3179 64.212 53.3971 64.2546C55.2346 65.4129 57.3679 66.0152 59.5399 65.9888C60.4937 66.1046 61.4612 66.0114 62.3753 65.7156C63.2894 65.4199 64.1281 64.9287 64.8333 64.2763C65.5385 63.6238 66.0933 62.8257 66.459 61.9373C66.8248 61.0489 66.9928 60.0915 66.9514 59.1317C66.9514 55.9288 65.2085 54.2746 61.1256 52.4174C58.1542 51.0831 57.6371 50.506 57.6371 49.4374C57.6371 48.5803 58.1514 47.5688 60.0942 47.5688C62.049 47.6253 63.9522 48.2087 65.6028 49.2574C65.6461 49.289 65.6978 49.3069 65.7514 49.3088C65.8742 49.3088 65.9599 49.186 65.9599 48.9888V45.3488C65.9719 45.2413 65.9565 45.1325 65.915 45.0326C65.8735 44.9326 65.8074 44.8448 65.7228 44.7774C64.1374 43.8581 62.3223 43.411 60.4914 43.4888" fill="#5BC3F6"/>
</svg>
