<svg width="80" height="80" viewBox="0 0 80 80" fill="none" xmlns="http://www.w3.org/2000/svg">
<path d="M68.8378 44.5358C66.0547 44.5502 63.6356 45.2205 61.6103 46.2114C60.8669 44.7396 60.1237 43.4283 59.9928 42.4664C59.8469 41.3446 59.6722 40.6596 59.8469 39.3189C60.0219 37.9783 60.8087 36.0692 60.794 35.9236C60.7797 35.778 60.619 35.093 59.0162 35.0786C57.4134 35.0639 56.029 35.3846 55.8687 35.8071C55.7084 36.2296 55.4025 37.1914 55.1984 38.1821C54.9215 39.6396 51.9928 44.8414 50.3172 47.5664C49.7778 46.503 49.3116 45.5702 49.2094 44.8271C49.0637 43.7052 48.8887 43.0202 49.0637 41.6796C49.2387 40.3389 50.0256 38.4302 50.0109 38.2842C49.9962 38.1386 49.8359 37.4536 48.2331 37.4392C46.63 37.4246 45.2456 37.7452 45.0856 38.1677C44.9253 38.5905 44.7503 39.5811 44.4153 40.543C44.08 41.5049 40.1894 50.1899 39.1694 52.4336C38.7572 53.3418 38.3248 54.2407 37.8725 55.1296C37.8725 55.1296 37.8578 55.1733 37.814 55.2461C37.672 55.5248 37.5263 55.8017 37.3772 56.0767V56.0911C37.1584 56.4849 36.9253 56.8489 36.8087 56.8489C36.7212 56.8489 36.5609 55.7999 36.8378 54.3717C37.4206 51.3555 38.805 46.6633 38.7906 46.503C38.7906 46.4155 39.0528 45.5996 37.8872 45.1768C36.7503 44.7542 36.3425 45.4536 36.2403 45.4536C36.1384 45.4536 36.0653 45.7014 36.0653 45.7014C36.0653 45.7014 37.3334 40.4264 33.6465 40.4264C31.3444 40.4264 28.1675 42.9474 26.5937 45.2205C24.8047 46.1941 23.0172 47.1704 21.2312 48.1496C20.3719 48.6305 19.4828 49.1114 18.6522 49.563C18.5937 49.5049 18.5356 49.4317 18.4772 49.3736C14.0181 44.6086 5.77061 41.2424 6.1203 34.8455C6.25155 32.5139 7.0528 26.3936 21.96 18.9621C34.2294 12.9146 43.9928 14.5902 45.6831 18.3061C48.1019 23.6105 40.4519 33.4611 27.774 34.8889C22.9362 35.4283 20.4006 33.563 19.7597 32.8636C19.0894 32.1349 18.9872 32.0911 18.7394 32.2371C18.3316 32.4558 18.5937 33.1114 18.7394 33.4902C19.1184 34.4808 20.6775 36.2296 23.315 37.0896C25.6466 37.8471 31.315 38.2699 38.1784 35.6177C45.8578 32.6449 51.8615 24.3827 50.0984 17.4611C48.335 10.4374 36.6775 8.1205 25.6466 12.0402C19.0894 14.3721 11.9781 18.0439 6.86343 22.8236C0.786865 28.5064 -0.17501 33.4464 0.218427 35.5158C1.63218 42.8599 11.7597 47.6396 15.8106 51.1805C15.6066 51.2971 15.4169 51.3992 15.2569 51.4867C13.2312 52.4921 5.50811 56.5283 3.58468 60.798C1.39905 65.6358 3.93468 69.1042 5.6103 69.5702C10.8125 71.013 16.1603 68.4192 19.0309 64.1349C21.9016 59.8508 21.5519 54.2842 20.2259 51.7342C20.2112 51.7052 20.1969 51.6758 20.1675 51.6467C20.6922 51.3408 21.2312 51.0202 21.7559 50.7142C22.7203 50.1442 23.6968 49.5951 24.685 49.0674C24.1894 50.4227 23.825 52.0402 23.6503 54.3717C23.4316 57.1114 24.5534 60.6667 26.0253 62.0655C26.6812 62.678 27.4534 62.6924 27.949 62.6924C29.6684 62.6924 30.4409 61.2642 31.3006 59.5739C32.3497 57.5049 33.2969 55.1005 33.2969 55.1005C33.2969 55.1005 32.1165 61.5996 35.3225 61.5996C36.4881 61.5996 37.6684 60.0839 38.1931 59.3117V59.3261C38.1931 59.3261 38.2222 59.2824 38.2806 59.1805C38.3972 58.9911 38.47 58.8742 38.47 58.8742V58.8455C38.9362 58.0292 39.9856 56.1786 41.5447 53.1039C43.5556 49.1405 45.4937 44.1861 45.4937 44.1861C45.4937 44.1861 45.6687 45.3955 46.2659 47.4064C46.6159 48.5867 47.3441 49.8836 47.9272 51.1367C47.4609 51.7927 47.1694 52.1567 47.1694 52.1567L47.184 52.1714C46.805 52.6667 46.3972 53.2058 45.9453 53.7308C44.3569 55.6249 42.4628 57.7964 42.2003 58.4227C41.8941 59.1658 41.9672 59.7052 42.5503 60.1424C42.9728 60.463 43.7303 60.5064 44.5028 60.463C45.9309 60.3608 46.9362 60.0111 47.4315 59.7927C48.2041 59.5158 49.1075 59.093 49.9525 58.4664C51.5119 57.3152 52.4587 55.6686 52.3715 53.4977C52.3278 52.3027 51.9344 51.1077 51.4534 49.9855C51.5994 49.7817 51.7303 49.5777 51.8762 49.3736C54.3387 45.7743 56.2478 41.8252 56.2478 41.8252C56.2478 41.8252 56.4228 43.0346 57.02 45.0458C57.3116 46.0658 57.909 47.1733 58.4334 48.2514C56.1165 50.1314 54.6884 52.3171 54.1784 53.7452C53.2606 56.3974 53.9744 57.5921 55.3297 57.8689C55.9415 58.0002 56.8159 57.7086 57.4572 57.4317C58.2731 57.1696 59.235 56.718 60.1531 56.0474C61.7125 54.8964 63.2131 53.2933 63.1256 51.1224C63.0819 50.1314 62.8197 49.1549 62.4553 48.2077C64.4225 47.3921 66.9581 46.9402 70.1928 47.3189C77.1294 48.1349 78.499 52.4627 78.2365 54.2846C77.9744 56.1058 76.5172 57.0967 76.0365 57.4027C75.5553 57.7089 75.3953 57.8108 75.439 58.0292C75.4972 58.3499 75.7303 58.3355 76.1384 58.2771C76.7069 58.1752 79.7815 56.8052 79.9125 53.4536C80.1312 49.1696 76.0509 44.4921 68.8378 44.5358ZM15.3297 62.5758C13.0272 65.0821 9.82155 66.0292 8.43718 65.228C6.95093 64.368 7.53374 60.6667 10.3606 58.0149C12.08 56.3974 14.295 54.8961 15.7669 53.9783C16.1019 53.7742 16.5975 53.483 17.195 53.1186C17.2969 53.0602 17.3553 53.0311 17.3553 53.0311L17.705 52.8124C18.7394 56.6011 17.7487 59.9383 15.3297 62.5758ZM32.0875 51.1805C31.2859 53.1333 29.6103 58.1314 28.5903 57.8546C27.7159 57.6214 27.1765 53.8327 28.4153 50.0877C29.0419 48.2077 30.3678 45.9636 31.1403 45.0896C32.3934 43.6905 33.7778 43.2239 34.1128 43.7927C34.5356 44.5358 32.5828 49.9564 32.0875 51.1805ZM45.9162 57.7961C45.5809 57.9711 45.2606 58.0877 45.1147 58.0002C45.0128 57.9417 45.2606 57.7086 45.2606 57.7086C45.2606 57.7086 46.9947 55.8436 47.6794 54.9983C48.0731 54.503 48.539 53.9202 49.0347 53.2642V53.4536C49.0347 55.6833 46.8778 57.1842 45.9159 57.7961H45.9162ZM56.5828 55.3627C56.335 55.1877 56.3787 54.6049 57.2094 52.7833C57.53 52.0692 58.2875 50.8746 59.5847 49.7233C59.7303 50.1896 59.8325 50.6414 59.8178 51.0639C59.8031 53.8764 57.7925 54.9255 56.5828 55.3627Z" fill="#CD6799"/>
</svg>
