<svg width="80" height="80" viewBox="0 0 80 80" fill="none" xmlns="http://www.w3.org/2000/svg">
<path d="M77.1717 8.42461L60.6988 0.493877C59.7686 0.0453396 58.7218 -0.102678 57.7037 0.0703427C56.6855 0.243363 55.7464 0.728851 55.0165 1.45951L1.09268 50.6209C0.438422 51.2145 0.046788 52.0438 0.0039266 52.9262C-0.0389348 53.8086 0.270486 54.6719 0.864124 55.3262C0.935547 55.4033 1.00697 55.4776 1.08411 55.5462L5.48657 59.5458C6.06185 60.0694 6.80233 60.3749 7.57943 60.4094C8.35653 60.4438 9.12114 60.205 9.74049 59.7344L74.6919 10.4816C75.1825 10.1093 75.7673 9.88134 76.3804 9.82339C76.9935 9.76543 77.6106 9.87976 78.1623 10.1535C78.714 10.4273 79.1783 10.8496 79.5029 11.3729C79.8276 11.8962 79.9997 12.4998 80 13.1156V12.9242C79.9999 11.984 79.7345 11.0629 79.2341 10.2669C78.7338 9.47091 78.0189 8.83231 77.1717 8.42461Z" fill="#0065A9"/>
<path d="M77.1717 71.1054L60.6988 79.0389C59.7683 79.4862 58.7218 79.6335 57.704 79.4606C56.6861 79.2876 55.7471 78.8029 55.0165 78.0733L1.09268 28.9091C0.438422 28.3154 0.046788 27.4862 0.0039266 26.6038C-0.0389348 25.7214 0.270486 24.8581 0.864124 24.2038C0.935547 24.1266 1.00697 24.0524 1.08411 23.9838L5.48657 19.9842C6.06243 19.4584 6.80461 19.1515 7.58363 19.117C8.36264 19.0826 9.12902 19.3227 9.74905 19.7956L74.6919 69.0484C75.1825 69.4207 75.7673 69.6486 76.3804 69.7066C76.9935 69.7645 77.6106 69.6502 78.1623 69.3765C78.714 69.1027 79.1783 68.6804 79.5029 68.1571C79.8276 67.6338 79.9997 67.0302 80 66.4143V66.62C79.9969 67.5577 79.7301 68.4757 79.2299 69.2688C78.7297 70.062 78.0165 70.6984 77.1717 71.1054Z" fill="#007ACC"/>
<path d="M60.6987 79.0391C59.7682 79.4864 58.7217 79.6337 57.7039 79.4607C56.686 79.2878 55.7469 78.803 55.0164 78.0735C55.4266 78.4784 55.9473 78.7532 56.5131 78.8635C57.0788 78.9738 57.6646 78.9147 58.1969 78.6935C58.7292 78.4723 59.1844 78.099 59.5054 77.6203C59.8265 77.1415 59.9991 76.5787 60.0016 76.0022V3.52863C60.0021 2.94951 59.8307 2.38327 59.5091 1.90165C59.1875 1.42003 58.7302 1.04469 58.1951 0.823191C57.66 0.60169 57.0712 0.543989 56.5033 0.657396C55.9354 0.770804 55.4139 1.05022 55.0049 1.46024C55.735 0.729852 56.6739 0.244333 57.6918 0.0708318C58.7098 -0.10267 59.7566 0.0444191 60.6873 0.491756L77.1573 8.41106C78.0071 8.81673 78.725 9.45445 79.228 10.2506C79.7309 11.0468 79.9985 11.9689 79.9999 12.9107V66.6202C80.0001 67.5612 79.7345 68.4831 79.2336 69.2797C78.7327 70.0763 78.0169 70.7152 77.1687 71.1227L60.6987 79.0391Z" fill="#1F9CF0"/>
</svg>
